<svg xmlns="http://www.w3.org/2000/svg" viewBox="0 0 1200 700">
<rect width="1200" height="700" fill="#fbfaf7"/>
<text x="60" y="80" font-family="Arial" font-size="39" font-weight="700" fill="#17324d">Metodología propuesta</text>
<text x="60" y="118" font-family="Arial" font-size="20" fill="#586575">Técnicas a utilizar en un proyecto futuro: se diseñan, no se ejecutan en esta entrega.</text>
<g font-family="Arial">
  <defs><marker id="arrow" markerWidth="10" markerHeight="10" refX="7" refY="3" orient="auto"><path d="M0,0 L0,6 L9,3 z" fill="#17324d"/></marker></defs>
  <g transform="translate(80,210)">
    <rect width="190" height="120" rx="18" fill="#fff" stroke="#d8d0c2"/>
    <text x="28" y="45" font-size="22" font-weight="700" fill="#17324d">1. Base</text>
    <text x="24" y="78" font-size="17" fill="#586575">documentos, mapas,</text>
    <text x="24" y="100" font-size="17" fill="#586575">normas, fotos</text>
  </g>
  <line x1="280" y1="270" x2="365" y2="270" stroke="#17324d" stroke-width="4" marker-end="url(#arrow)"/>
  <g transform="translate(380,210)">
    <rect width="190" height="120" rx="18" fill="#fff" stroke="#d8d0c2"/>
    <text x="28" y="45" font-size="22" font-weight="700" fill="#17324d">2. Campo</text>
    <text x="24" y="78" font-size="17" fill="#586575">observación,</text>
    <text x="24" y="100" font-size="17" fill="#586575">recorridas, registro</text>
  </g>
  <line x1="580" y1="270" x2="665" y2="270" stroke="#17324d" stroke-width="4" marker-end="url(#arrow)"/>
  <g transform="translate(680,210)">
    <rect width="190" height="120" rx="18" fill="#fff" stroke="#d8d0c2"/>
    <text x="28" y="45" font-size="22" font-weight="700" fill="#17324d">3. Actores</text>
    <text x="24" y="78" font-size="17" fill="#586575">entrevistas, talleres,</text>
    <text x="24" y="100" font-size="17" fill="#586575">cartografía social</text>
  </g>
  <line x1="880" y1="270" x2="965" y2="270" stroke="#17324d" stroke-width="4" marker-end="url(#arrow)"/>
  <g transform="translate(980,210)">
    <rect width="150" height="120" rx="18" fill="#17324d"/>
    <text x="30" y="45" font-size="22" font-weight="700" fill="#fff">FOAR</text>
    <text x="18" y="78" font-size="16" fill="#dbe7e4">aspiraciones</text>
    <text x="18" y="100" font-size="16" fill="#dbe7e4">+ resultados</text>
  </g>
  <rect x="150" y="438" width="900" height="118" rx="20" fill="#eef3f0" stroke="#d8d0c2"/>
  <text x="200" y="480" font-size="24" font-weight="700" fill="#17324d">Producto del proyecto</text>
  <text x="200" y="518" font-size="19" fill="#586575">Hoja de ruta de ordenamiento: agenda de problemas, mapa de actores,</text>
  <text x="200" y="545" font-size="19" fill="#586575">cartera de acciones y condiciones de factibilidad.</text>
</g>
</svg>
